<svg width="64" height="64" viewBox="0 0 64 64" fill="none" xmlns="http://www.w3.org/2000/svg">
  <!-- Background with rounded corners -->
  <rect width="64" height="64" rx="12" fill="#3b82f6"/>
  
  <!-- Document icon -->
  <path d="M18 14c0-2.2 1.8-4 4-4h16l8 8v30c0 2.2-1.8 4-4 4H22c-2.2 0-4-1.8-4-4V14z" fill="white"/>
  
  <!-- Document corner fold -->
  <path d="M38 10v8h8" fill="none" stroke="#3b82f6" stroke-width="2" stroke-linecap="round" stroke-linejoin="round"/>
  
  <!-- Document lines -->
  <line x1="24" y1="26" x2="36" y2="26" stroke="#64748b" stroke-width="2" stroke-linecap="round"/>
  <line x1="24" y1="32" x2="40" y2="32" stroke="#64748b" stroke-width="2" stroke-linecap="round"/>
  <line x1="24" y1="38" x2="32" y2="38" stroke="#64748b" stroke-width="2" stroke-linecap="round"/>
  
  <!-- Chat bubble -->
  <circle cx="46" cy="44" r="10" fill="#10b981"/>
  
  <!-- Chat bubble tail -->
  <path d="M40 50l-4 4v-4h4z" fill="#10b981"/>
  
  <!-- Chat dots -->
  <circle cx="42" cy="42" r="1.5" fill="white"/>
  <circle cx="46" cy="42" r="1.5" fill="white"/>
  <circle cx="50" cy="42" r="1.5" fill="white"/>
</svg>