<svg width="32" height="32" viewBox="0 0 32 32" fill="none" xmlns="http://www.w3.org/2000/svg">
  <!-- Background circle with gradient -->
  <defs>
    <linearGradient id="bg-gradient" x1="0%" y1="0%" x2="100%" y2="100%">
      <stop offset="0%" style="stop-color:#3b82f6;stop-opacity:1" />
      <stop offset="100%" style="stop-color:#1e40af;stop-opacity:1" />
    </linearGradient>
    <linearGradient id="doc-gradient" x1="0%" y1="0%" x2="100%" y2="100%">
      <stop offset="0%" style="stop-color:#ffffff;stop-opacity:1" />
      <stop offset="100%" style="stop-color:#f8fafc;stop-opacity:1" />
    </linearGradient>
  </defs>
  
  <!-- Main background circle -->
  <circle cx="16" cy="16" r="16" fill="url(#bg-gradient)"/>
  
  <!-- Document shape -->
  <path d="M8 6c0-1.1.9-2 2-2h8l4 4v16c0 1.1-.9 2-2 2H10c-1.1 0-2-.9-2-2V6z" fill="url(#doc-gradient)" stroke="none"/>
  
  <!-- Document corner fold -->
  <path d="M18 4v4h4" fill="none" stroke="#3b82f6" stroke-width="1.5" stroke-linecap="round" stroke-linejoin="round"/>
  
  <!-- Chat bubble -->
  <circle cx="22" cy="20" r="6" fill="#10b981" stroke="#ffffff" stroke-width="2"/>
  
  <!-- Chat bubble tail -->
  <path d="M19 23l-2 2v-2h2z" fill="#10b981"/>
  
  <!-- Chat dots -->
  <circle cx="20" cy="19" r="1" fill="white"/>
  <circle cx="22" cy="19" r="1" fill="white"/>
  <circle cx="24" cy="19" r="1" fill="white"/>
  
  <!-- Document lines -->
  <line x1="11" y1="12" x2="17" y2="12" stroke="#64748b" stroke-width="1" stroke-linecap="round"/>
  <line x1="11" y1="15" x2="19" y2="15" stroke="#64748b" stroke-width="1" stroke-linecap="round"/>
  <line x1="11" y1="18" x2="15" y2="18" stroke="#64748b" stroke-width="1" stroke-linecap="round"/>
</svg>